<?xml version="1.0" encoding="UTF-8" standalone="no"?>
<!-- Created with Inkscape (http://www.inkscape.org/) -->

<svg
   width="180.49086mm"
   height="45.626785mm"
   viewBox="0 0 180.49086 45.626785"
   version="1.1"
   id="svg1"
   inkscape:export-filename="mds.svg"
   inkscape:export-xdpi="96"
   inkscape:export-ydpi="96"
   inkscape:version="1.3 (0e150ed6c4, 2023-07-21)"
   sodipodi:docname="mds.svg"
   xmlns:inkscape="http://www.inkscape.org/namespaces/inkscape"
   xmlns:sodipodi="http://sodipodi.sourceforge.net/DTD/sodipodi-0.dtd"
   xmlns="http://www.w3.org/2000/svg"
   xmlns:svg="http://www.w3.org/2000/svg">
  <sodipodi:namedview
     id="namedview1"
     pagecolor="#ffffff"
     bordercolor="#000000"
     borderopacity="0.25"
     inkscape:showpageshadow="2"
     inkscape:pageopacity="0.0"
     inkscape:pagecheckerboard="0"
     inkscape:deskcolor="#d1d1d1"
     inkscape:document-units="mm"
     inkscape:zoom="0.49575348"
     inkscape:cx="118.0022"
     inkscape:cy="495.20581"
     inkscape:window-width="1920"
     inkscape:window-height="1001"
     inkscape:window-x="-9"
     inkscape:window-y="-9"
     inkscape:window-maximized="1"
     inkscape:current-layer="layer1" />
  <defs
     id="defs1" />
  <g
     inkscape:label="Layer 1"
     inkscape:groupmode="layer"
     id="layer1"
     transform="translate(-12.275084,-116.45951)">
    <path
       style="font-size:65.4826px;font-family:'Rockwell Extra Bold';-inkscape-font-specification:'Rockwell Extra Bold, ';text-align:center;letter-spacing:7.68876px;word-spacing:0.0935462px;text-anchor:middle;fill:#ff0000;stroke:#0027ff;stroke-width:0"
       d="M 29.604952,161.51077 H 12.371007 v -10.64731 h 3.42121 v -23.1811 h -3.517132 v -10.64732 h 26.826123 l 6.554654,17.17 6.714524,-17.17 h 26.666253 v 10.64732 h -3.485157 v 23.1811 h 3.581079 v 10.64731 H 55.919492 v -10.64731 h 3.549106 V 126.01972 L 46.039549,161.51077 H 39.388973 L 26.087821,126.33946 v 24.524 h 3.517131 z m 83.946568,-33.82841 v 23.1811 h 1.63067 q 6.07505,0 7.89756,-3.22937 1.79054,-3.22937 1.79054,-8.12138 0,-2.9416 -0.76737,-5.81925 -0.79935,-2.87765 -2.81371,-4.44438 -1.98238,-1.56672 -7.09821,-1.56672 z m 0,33.82841 H 92.864394 v -10.64731 h 3.485157 v -23.1811 h -3.485157 v -10.64732 h 21.294636 q 7.29005,0 11.8943,0.89527 4.63622,0.89527 8.72888,3.677 4.06069,2.81371 6.39478,7.6098 1.15106,2.30212 1.75857,4.92398 0.6075,2.62187 0.6075,5.49952 0,5.78728 -2.46199,10.55139 -2.43002,4.73214 -6.17097,7.25808 -3.64502,2.52594 -7.99348,3.29332 -4.31648,0.76737 -13.3651,0.76737 z m 53.92306,0 H 157.46674 V 147.2504 h 10.00784 q 1.79054,5.81926 6.74649,5.81926 3.58108,0 3.58108,-2.87766 0,-1.50277 -1.24698,-2.49396 -1.3429,-1.08712 -5.65938,-3.00555 -5.43557,-2.46199 -7.99349,-4.25253 -2.39804,-1.63067 -4.09266,-4.50833 -1.69462,-2.84568 -1.69462,-6.29886 0,-6.20294 4.02872,-9.6881 3.99674,-3.48516 9.84797,-3.48516 5.85123,0 9.91191,3.32529 v -2.74976 h 10.07179 v 12.66168 h -9.94389 q -1.82251,-5.24373 -6.45873,-5.24373 -3.26134,0 -3.26134,2.78174 0,1.3429 0.92724,2.01435 0.89527,0.70343 5.78728,3.10147 6.55466,3.26134 8.76086,4.76412 1.11908,0.7354 2.27014,2.0783 1.18304,1.31093 1.95041,2.71779 1.75857,3.13344 1.75857,6.77847 0,5.59544 -4.15661,9.46428 -4.15661,3.93279 -10.48745,3.93279 -5.8832,0 -10.64731,-3.48515 z"
       id="text2"
       aria-label="MDS" />
  </g>
</svg>
